<svg xmlns="http://www.w3.org/2000/svg" viewBox="0 0 64 64" width="64" height="64" role="img" aria-label="fair.yoga">
  <title>fair.yoga</title>
  <rect width="64" height="64" fill="#1A5653"/>
  <g fill="#F7F4EF" transform="translate(18.7,15) scale(0.8)">
    <path d="M21.38,3.28c0,.82-.22,1.51-.66,2.08-.44.57-1.1.85-2,.85-.57,0-1.06-.12-1.49-.36-.43-.24-.83-.56-1.19-.96-.36-.4-.7-.86-1.01-1.37-.31-.51-.57-.92-.79-1.23-1.22.05-2.17.91-2.83,2.55-.67,1.65-1,4.27-1,7.87v2.76h6.95v2.62h-6.95v19.36c0,.64.12,1.16.37,1.56.25.4.63.7,1.16.9.44.16,1.02.3,1.75.4.73.1,1.36.17,1.89.21v1.8H1.37v-1.8c.42-.04.85-.07,1.3-.11.45-.04.83-.11,1.16-.22.51-.16.89-.45,1.13-.86s.37-.94.37-1.6v-19.63H0v-2.62h5.33v-1.72c0-4.09,1.06-7.41,3.19-9.95,2.12-2.54,4.78-3.81,7.97-3.81,1.62,0,2.84.32,3.66.96.82.64,1.23,1.41,1.23,2.32Z"/>
    <path transform="translate(-64.15,0)" d="M96.91,38.4c0,1.28-.46,2.36-1.38,3.26-.92.9-2.02,1.35-3.3,1.35s-2.38-.45-3.3-1.35c-.92-.9-1.38-1.99-1.38-3.26s.46-2.38,1.38-3.3c.92-.92,2.02-1.38,3.3-1.38s2.38.46,3.3,1.38c.92.92,1.38,2.02,1.38,3.3Z"/>
  </g>
</svg>
