<svg xmlns="http://www.w3.org/2000/svg" viewBox="0 0 213.09 54.47" width="213" height="54" role="img" aria-label="fair.yoga"><title>fair.yoga wordmark</title><g><path fill="#2D2D2D" d="M21.38,3.28c0,.82-.22,1.51-.66,2.08-.44.57-1.1.85-2,.85-.57,0-1.06-.12-1.49-.36-.43-.24-.83-.56-1.19-.96-.36-.4-.7-.86-1.01-1.37-.31-.51-.57-.92-.79-1.23-1.22.05-2.17.91-2.83,2.55-.67,1.65-1,4.27-1,7.87v2.76h6.95v2.62h-6.95v19.36c0,.64.12,1.16.37,1.56.25.4.63.7,1.16.9.44.16,1.02.3,1.75.4.73.1,1.36.17,1.89.21v1.8H1.37v-1.8c.42-.04.85-.07,1.3-.11.45-.04.83-.11,1.16-.22.51-.16.89-.45,1.13-.86s.37-.94.37-1.6v-19.63H0v-2.62h5.33v-1.72c0-4.09,1.06-7.41,3.19-9.95,2.12-2.54,4.78-3.81,7.97-3.81,1.62,0,2.84.32,3.66.96.82.64,1.23,1.41,1.23,2.32Z"></path><path fill="#2D2D2D" d="M44.5,41.84c-.86.31-1.61.56-2.26.75-.65.19-1.38.29-2.2.29-1.42,0-2.56-.33-3.4-1s-1.39-1.64-1.63-2.91h-.16c-1.19,1.31-2.46,2.32-3.81,3.01-1.36.69-2.99,1.04-4.91,1.04-2.02,0-3.69-.62-4.99-1.86-1.3-1.24-1.96-2.86-1.96-4.87,0-1.04.15-1.97.44-2.79.29-.82.73-1.56,1.31-2.21.46-.55,1.06-1.03,1.8-1.46.75-.43,1.45-.77,2.11-1.03.82-.31,2.48-.88,4.99-1.72,2.51-.84,4.2-1.49,5.07-1.97v-2.71c0-.24-.05-.69-.15-1.37-.1-.67-.31-1.31-.64-1.91-.36-.67-.88-1.26-1.54-1.76-.67-.5-1.61-.75-2.83-.75-.84,0-1.62.14-2.34.42-.72.28-1.23.58-1.52.89,0,.37.09.9.26,1.61.17.71.26,1.37.26,1.97,0,.64-.29,1.22-.86,1.75-.57.53-1.37.79-2.39.79-.91,0-1.58-.32-2.01-.97-.43-.65-.64-1.37-.64-2.17s.3-1.64.89-2.41c.59-.77,1.36-1.45,2.31-2.05.82-.51,1.81-.94,2.98-1.3,1.17-.36,2.31-.53,3.42-.53,1.53,0,2.87.11,4.01.31,1.14.21,2.17.66,3.1,1.35.93.67,1.64,1.59,2.12,2.75.48,1.16.72,2.65.72,4.47,0,2.61-.03,4.92-.08,6.93-.05,2.01-.08,4.22-.08,6.6,0,.71.12,1.28.37,1.7.25.42.62.78,1.13,1.07.27.16.71.26,1.3.27.59.02,1.2.03,1.82.03v1.75ZM34.96,27.4c-1.55.46-2.91.9-4.07,1.34-1.17.44-2.25.99-3.25,1.64-.91.62-1.63,1.36-2.16,2.21-.53.85-.79,1.86-.79,3.03,0,1.52.4,2.63,1.19,3.34s1.8,1.07,3.02,1.07c1.29,0,2.43-.31,3.42-.95s1.81-1.38,2.49-2.23l.16-9.45Z"></path><path fill="#2D2D2D" d="M59.69,42.33h-13.02v-1.8c.42-.04.85-.07,1.3-.11.45-.04.83-.11,1.16-.22.51-.16.89-.45,1.13-.86.25-.41.37-.94.37-1.6v-16.63c0-.58-.13-1.12-.4-1.6-.26-.48-.63-.89-1.11-1.21-.35-.22-.85-.41-1.5-.56s-1.26-.25-1.8-.29v-1.8l9.52-.6.38.38v21.98c0,.64.12,1.17.37,1.59.24.42.63.73,1.15.93.4.16.79.3,1.17.4.38.1.81.17,1.28.21v1.8ZM56.27,4.4c0,1.04-.34,1.95-1.03,2.72-.68.78-1.53,1.16-2.53,1.16-.93,0-1.74-.37-2.42-1.11s-1.03-1.58-1.03-2.53c0-1,.34-1.88,1.03-2.62.68-.75,1.49-1.12,2.42-1.12,1.04,0,1.89.35,2.56,1.05.67.7,1,1.52,1,2.45Z"></path><path fill="#2D2D2D" d="M83.11,18.84c0,.93-.23,1.75-.68,2.47-.46.72-1.16,1.08-2.11,1.08-1.02,0-1.8-.26-2.34-.79-.54-.53-.81-1.11-.81-1.75,0-.4.03-.77.1-1.09.06-.33.12-.66.18-.98-.86,0-1.86.35-3.01,1.04-1.15.69-2.12,1.68-2.93,2.95v15.7c0,.64.12,1.16.37,1.56.25.4.63.7,1.16.9.46.18,1.04.32,1.76.41.72.09,1.34.16,1.87.19v1.8h-14.22v-1.8c.42-.04.85-.07,1.3-.11.45-.04.83-.11,1.16-.22.51-.16.89-.45,1.13-.86.25-.41.37-.94.37-1.6v-16.63c0-.56-.13-1.12-.4-1.67-.26-.55-.63-.98-1.11-1.31-.35-.22-.76-.38-1.23-.48-.47-.1-.98-.17-1.53-.21v-1.8l8.97-.6.38.38v3.8h.14c1.13-1.48,2.39-2.6,3.77-3.36,1.39-.77,2.65-1.15,3.8-1.15s2.08.37,2.8,1.12c.72.75,1.08,1.75,1.08,3.01Z"></path></g><g fill="#2D2D2D"><path fill="#1A5653" d="M96.91,38.4c0,1.28-.46,2.36-1.38,3.26-.92.9-2.02,1.35-3.3,1.35s-2.38-.45-3.3-1.35c-.92-.9-1.38-1.99-1.38-3.26s.46-2.38,1.38-3.3c.92-.92,2.02-1.38,3.3-1.38s2.38.46,3.3,1.38c.92.92,1.38,2.02,1.38,3.3Z"></path></g><path fill="#2D2D2D" d="M100.91,51.13c0-.91.25-1.65.75-2.23.5-.57,1.13-.86,1.87-.86.58,0,1.08.11,1.5.33.42.22.79.5,1.12.84.27.27.56.64.87,1.11.31.47.56.86.74,1.17.91-.49,2-1.77,3.27-3.85,1.27-2.07,2.18-3.89,2.75-5.46-1.73-4.32-3.3-8.18-4.7-11.59-1.4-3.41-2.87-6.93-4.4-10.58-.35-.84-.93-1.49-1.75-1.96s-1.64-.76-2.46-.89v-1.8h12.31v1.91c-.55.02-1.2.13-1.97.34s-1.15.45-1.15.72c0,.11.04.29.12.55s.18.52.29.79c.69,1.8,1.75,4.4,3.16,7.8,1.42,3.4,2.52,6.12,3.3,8.16.82-1.95,1.67-3.97,2.56-6.05s1.88-4.55,2.97-7.39c.13-.35.31-.82.55-1.43.24-.61.36-1.13.36-1.57,0-.47-.42-.92-1.24-1.32-.83-.41-1.62-.66-2.37-.75v-1.75h10.01v1.7c-.55.09-1.27.41-2.16.94-.89.54-1.56,1.3-2,2.28-2.17,5.03-4.1,9.62-5.78,13.75-1.69,4.14-2.97,7.18-3.84,9.13-1.15,2.55-2.17,4.54-3.08,5.97-.9,1.43-1.78,2.56-2.64,3.38-.84.77-1.6,1.28-2.28,1.54-.68.26-1.39.4-2.12.4-1.42,0-2.54-.34-3.35-1.01-.81-.67-1.22-1.45-1.22-2.32Z"></path><path fill="#2D2D2D" d="M156.26,28.57c0,1.9-.3,3.76-.9,5.59-.6,1.83-1.46,3.39-2.57,4.66-1.26,1.46-2.72,2.54-4.38,3.25s-3.52,1.07-5.58,1.07c-1.71,0-3.35-.32-4.9-.97-1.55-.65-2.93-1.59-4.13-2.83-1.19-1.22-2.13-2.71-2.83-4.47-.7-1.76-1.05-3.73-1.05-5.92,0-4.21,1.23-7.66,3.68-10.34,2.46-2.68,5.67-4.02,9.65-4.02s6.89,1.27,9.35,3.81c2.46,2.54,3.68,5.93,3.68,10.16ZM150.6,28.63c0-1.37-.14-2.81-.41-4.33-.27-1.52-.69-2.81-1.23-3.87-.58-1.13-1.35-2.04-2.3-2.72-.95-.68-2.11-1.03-3.48-1.03s-2.61.35-3.6,1.04c-1,.69-1.8,1.64-2.42,2.84-.58,1.11-1,2.38-1.23,3.8s-.36,2.8-.36,4.13c0,1.75.14,3.37.43,4.85.28,1.49.73,2.81,1.36,3.98.62,1.17,1.4,2.08,2.34,2.75.94.67,2.11,1,3.49,1,2.28,0,4.09-1.1,5.42-3.31,1.33-2.21,2-5.25,2-9.13Z"></path><path fill="#2D2D2D" d="M182.69,39.54c.73.69,1.3,1.48,1.72,2.35s.63,1.96.63,3.25-.28,2.51-.85,3.65c-.57,1.14-1.42,2.13-2.57,2.97-1.22.86-2.68,1.52-4.38,2-1.7.47-3.79.71-6.29.71-4.08,0-7.14-.6-9.16-1.79-2.02-1.19-3.04-2.94-3.04-5.24,0-1.86.73-3.33,2.19-4.4s3.32-1.66,5.58-1.75v-.38c-.55-.16-1.11-.37-1.7-.62s-1.08-.53-1.5-.86c-.47-.38-.86-.83-1.15-1.35s-.44-1.16-.44-1.93c0-.97.34-1.85,1.03-2.67.68-.81,1.72-1.51,3.1-2.09v-.41c-1.75-.82-3.11-1.87-4.07-3.16s-1.45-2.78-1.45-4.47c0-2.55.95-4.65,2.86-6.29s4.34-2.46,7.31-2.46c.82,0,1.64.08,2.45.25s1.64.37,2.47.63h9.41v2.62h-6.34v.16c.67.78,1.18,1.65,1.5,2.6.33.95.49,1.88.49,2.79,0,2.37-.96,4.38-2.88,6.02s-4.16,2.46-6.71,2.46h-3.31c-.42.15-.86.41-1.31.79s-.68.9-.68,1.56.19,1.19.57,1.54.85.6,1.39.72c.53.15,1.14.24,1.85.27.7.04,1.43.06,2.17.08.8.02,1.9.07,3.29.16,1.39.09,2.38.15,2.97.16.84.04,1.68.24,2.53.6.85.37,1.62.87,2.31,1.5ZM180.56,46.16c0-1.02-.24-1.86-.71-2.52s-1.19-1.1-2.16-1.34c-.51-.07-1.56-.15-3.14-.25-1.59-.09-3.43-.14-5.52-.14-1.97.38-3.37,1.03-4.2,1.93s-1.24,2.06-1.24,3.49c0,.64.14,1.25.41,1.83.27.58.75,1.12,1.42,1.61.64.47,1.5.86,2.57,1.16s2.39.45,3.94.45c2.68,0,4.79-.52,6.33-1.54,1.54-1.03,2.31-2.59,2.31-4.69ZM175.31,23.54c0-2.13-.43-3.83-1.3-5.1-.87-1.27-2.08-1.9-3.65-1.9-.86,0-1.59.18-2.2.53s-1.11.86-1.49,1.52c-.36.6-.62,1.33-.78,2.17s-.23,1.72-.23,2.61c0,2.02.44,3.67,1.33,4.95.88,1.28,2.03,1.91,3.43,1.91,1.57,0,2.78-.63,3.62-1.9.85-1.27,1.27-2.87,1.27-4.8Z"></path><path fill="#2D2D2D" d="M213.09,41.84c-.86.31-1.61.56-2.26.75-.65.19-1.38.29-2.2.29-1.42,0-2.56-.33-3.4-1s-1.39-1.64-1.63-2.91h-.16c-1.19,1.31-2.46,2.32-3.81,3.01-1.36.69-2.99,1.04-4.91,1.04-2.02,0-3.69-.62-4.99-1.86-1.3-1.24-1.96-2.86-1.96-4.87,0-1.04.14-1.97.44-2.79.29-.82.73-1.56,1.31-2.21.46-.55,1.06-1.03,1.8-1.46.75-.43,1.45-.77,2.11-1.03.82-.31,2.48-.88,4.99-1.72,2.51-.84,4.2-1.49,5.07-1.97v-2.71c0-.24-.05-.69-.15-1.37-.1-.67-.31-1.31-.64-1.91-.37-.67-.88-1.26-1.54-1.76-.67-.5-1.61-.75-2.83-.75-.84,0-1.62.14-2.34.42-.72.28-1.23.58-1.52.89,0,.37.09.9.26,1.61.17.71.26,1.37.26,1.97,0,.64-.29,1.22-.86,1.75-.57.53-1.37.79-2.39.79-.91,0-1.58-.32-2.01-.97-.43-.65-.64-1.37-.64-2.17s.29-1.64.89-2.41c.59-.77,1.36-1.45,2.31-2.05.82-.51,1.81-.94,2.98-1.3,1.17-.36,2.3-.53,3.42-.53,1.53,0,2.87.11,4.01.31,1.14.21,2.17.66,3.1,1.35.93.67,1.63,1.59,2.12,2.75.48,1.16.72,2.65.72,4.47,0,2.61-.03,4.92-.08,6.93-.05,2.01-.08,4.22-.08,6.6,0,.71.12,1.28.37,1.7.25.42.62.78,1.13,1.07.27.16.71.26,1.3.27.59.02,1.2.03,1.82.03v1.75ZM203.54,27.4c-1.55.46-2.91.9-4.07,1.34-1.17.44-2.25.99-3.25,1.64-.91.62-1.63,1.36-2.16,2.21-.53.85-.79,1.86-.79,3.03,0,1.52.4,2.63,1.19,3.34s1.8,1.07,3.02,1.07c1.29,0,2.43-.31,3.42-.95s1.81-1.38,2.49-2.23l.16-9.45Z"></path></svg>